<svg width="52" height="52" viewBox="0 0 52 52" fill="none" xmlns="http://www.w3.org/2000/svg">
<path d="M15.3333 50V47.3333C15.3333 45.9188 15.8952 44.5623 16.8954 43.5621C17.8956 42.5619 19.2522 42 20.6667 42H31.3333C32.7478 42 34.1044 42.5619 35.1046 43.5621C36.1048 44.5623 36.6667 45.9188 36.6667 47.3333V50M39.3333 20.6667H44.6667C46.0812 20.6667 47.4377 21.2286 48.4379 22.2288C49.4381 23.229 50 24.5855 50 26V28.6667M2 28.6667V26C2 24.5855 2.5619 23.229 3.5621 22.2288C4.56229 21.2286 5.91885 20.6667 7.33333 20.6667H12.6667M20.6667 28.6667C20.6667 30.0812 21.2286 31.4377 22.2288 32.4379C23.229 33.4381 24.5855 34 26 34C27.4145 34 28.771 33.4381 29.7712 32.4379C30.7714 31.4377 31.3333 30.0812 31.3333 28.6667C31.3333 27.2522 30.7714 25.8956 29.7712 24.8954C28.771 23.8952 27.4145 23.3333 26 23.3333C24.5855 23.3333 23.229 23.8952 22.2288 24.8954C21.2286 25.8956 20.6667 27.2522 20.6667 28.6667ZM34 7.33333C34 8.74782 34.5619 10.1044 35.5621 11.1046C36.5623 12.1048 37.9188 12.6667 39.3333 12.6667C40.7478 12.6667 42.1044 12.1048 43.1046 11.1046C44.1048 10.1044 44.6667 8.74782 44.6667 7.33333C44.6667 5.91885 44.1048 4.56229 43.1046 3.5621C42.1044 2.5619 40.7478 2 39.3333 2C37.9188 2 36.5623 2.5619 35.5621 3.5621C34.5619 4.56229 34 5.91885 34 7.33333ZM7.33333 7.33333C7.33333 8.74782 7.89524 10.1044 8.89543 11.1046C9.89562 12.1048 11.2522 12.6667 12.6667 12.6667C14.0812 12.6667 15.4377 12.1048 16.4379 11.1046C17.4381 10.1044 18 8.74782 18 7.33333C18 5.91885 17.4381 4.56229 16.4379 3.5621C15.4377 2.5619 14.0812 2 12.6667 2C11.2522 2 9.89562 2.5619 8.89543 3.5621C7.89524 4.56229 7.33333 5.91885 7.33333 7.33333Z" stroke="#1DD100" stroke-width="4" stroke-linecap="round" stroke-linejoin="round"/>
</svg>
