<svg width="55" height="50" viewBox="0 0 55 50" fill="none" xmlns="http://www.w3.org/2000/svg">
<path d="M36.6667 39.3333C36.6667 40.7478 37.2286 42.1044 38.2288 43.1046C39.229 44.1048 40.5855 44.6667 42 44.6667C43.4145 44.6667 44.771 44.1048 45.7712 43.1046C46.7714 42.1044 47.3333 40.7478 47.3333 39.3333M36.6667 39.3333C36.6667 37.9188 37.2286 36.5623 38.2288 35.5621C39.229 34.5619 40.5855 34 42 34C43.4145 34 44.771 34.5619 45.7712 35.5621C46.7714 36.5623 47.3333 37.9188 47.3333 39.3333M36.6667 39.3333H15.3333M47.3333 39.3333H52.6667V26M20.6667 7.33333H39.3333C46.696 7.33333 52.6667 15.6907 52.6667 26M52.6667 26H40.6667L36.6667 7.33333M19.3333 20.6667H39.3333M26 7.33333V20.6667M7.33333 18V47.3333M2 4.66667C2 3.95942 2.28095 3.28115 2.78105 2.78105C3.28115 2.28095 3.95942 2 4.66667 2H10C10.7072 2 11.3855 2.28095 11.8856 2.78105C12.3857 3.28115 12.6667 3.95942 12.6667 4.66667V15.3333C12.6667 16.0406 12.3857 16.7189 11.8856 17.219C11.3855 17.719 10.7072 18 10 18H4.66667C3.95942 18 3.28115 17.719 2.78105 17.219C2.28095 16.7189 2 16.0406 2 15.3333V4.66667Z" stroke="#1DD100" stroke-width="4" stroke-linecap="round" stroke-linejoin="round"/>
</svg>
