<svg width="52" height="42" viewBox="0 0 52 42" fill="none" xmlns="http://www.w3.org/2000/svg">
<path d="M34 2.33337V7.66671M34 18.3334V23.6667M34 34.3334V39.6667M7.33333 2.33337H44.6667C46.0812 2.33337 47.4377 2.89528 48.4379 3.89547C49.4381 4.89566 50 6.25222 50 7.66671V15.6667C48.5855 15.6667 47.229 16.2286 46.2288 17.2288C45.2286 18.229 44.6667 19.5856 44.6667 21C44.6667 22.4145 45.2286 23.7711 46.2288 24.7713C47.229 25.7715 48.5855 26.3334 50 26.3334V34.3334C50 35.7479 49.4381 37.1044 48.4379 38.1046C47.4377 39.1048 46.0812 39.6667 44.6667 39.6667H7.33333C5.91885 39.6667 4.56229 39.1048 3.5621 38.1046C2.5619 37.1044 2 35.7479 2 34.3334V26.3334C3.41449 26.3334 4.77104 25.7715 5.77124 24.7713C6.77143 23.7711 7.33333 22.4145 7.33333 21C7.33333 19.5856 6.77143 18.229 5.77124 17.2288C4.77104 16.2286 3.41449 15.6667 2 15.6667V7.66671C2 6.25222 2.5619 4.89566 3.5621 3.89547C4.56229 2.89528 5.91885 2.33337 7.33333 2.33337Z" stroke="#1DD100" stroke-width="4" stroke-linecap="round" stroke-linejoin="round"/>
</svg>
